<?xml version="1.0" encoding="utf-8"?>
<!-- Generator: $$$/GeneralStr/196=Adobe Illustrator 27.6.0, SVG Export Plug-In . SVG Version: 6.00 Build 0)  -->
<svg version="1.1" id="Capa_1" xmlns="http://www.w3.org/2000/svg" xmlns:xlink="http://www.w3.org/1999/xlink" x="0px" y="0px"
	 viewBox="0 0 250 100" style="enable-background:new 0 0 250 100;" xml:space="preserve">
<style type="text/css">
	.st0{fill:#777777;}
</style>
<path class="st0" d="M58,50c0-6.1,4.9-10.7,11.3-10.7c2.6,0,4.9,0.7,7,2.2c1.2,0.8,1.7,1.4,1.7,2.2v3.6h0c-1.8-4.2-5-6.9-8.7-6.9
	c-4.4,0-7.6,4.1-7.6,9.7c0,5.6,3.3,9.6,7.8,9.6c2.8,0,5.3-1.9,5.3-3.9v-2.4c0-1-0.4-1.9-1.2-2.3v0h5.6v0c-0.8,0.4-1.2,1.3-1.2,2.3
	v2.9c0,0.8-0.5,1.7-2.4,2.8c-1.9,1.1-4.2,1.7-6.5,1.7C62.9,60.7,58,56.1,58,50z M94.8,58.7c-1.4-1.2-2.2-2.8-2.2-4.8V42.3
	c0-1-0.4-1.9-1.2-2.3v0h5.6v0c-0.8,0.4-1.2,1.3-1.2,2.3v11c0,1.8,0.5,3.2,1.6,4.2c1.2,1.2,2.9,1.8,5,1.9c4,0,6.6-2.3,6.6-5.7V42.3
	c0-1-0.4-1.9-1.2-2.3v0h3.3v0c-0.8,0.4-1.2,1.3-1.2,2.3v11.3c0,4.2-3.4,7-8.6,7C98.6,60.7,96.4,59.9,94.8,58.7z M122.6,50
	c0-6.1,4.9-10.7,11.3-10.7c2.6,0,4.9,0.7,7,2.2c1.2,0.8,1.7,1.4,1.7,2.2v3.6h0c-1.8-4.2-5-6.9-8.8-6.9c-4.3,0-7.5,4.1-7.5,9.7
	c0,5.6,3.2,9.6,7.7,9.6c3.6,0,7-2.6,9.2-7h0l-0.5,3.7c-0.1,0.7-0.6,1.3-1.8,2.1c-2.1,1.5-4.4,2.2-7,2.2
	C127.4,60.6,122.6,56.1,122.6,50z M154.5,50c0-6.1,4.9-10.7,11.3-10.7c2.6,0,4.9,0.7,7,2.2c1.2,0.8,1.7,1.4,1.7,2.2v3.6h0
	c-1.8-4.2-5-6.9-8.8-6.9c-4.3,0-7.5,4.1-7.5,9.7c0,5.6,3.2,9.6,7.7,9.6c3.6,0,7-2.6,9.2-7h0l-0.5,3.7c-0.1,0.7-0.6,1.3-1.8,2.1
	c-2.1,1.5-4.4,2.2-7,2.2C159.3,60.6,154.5,56.1,154.5,50z M187.5,57.7V42.3c0-1-0.4-1.9-1.2-2.3v0h5.6v0c-0.8,0.4-1.2,1.3-1.2,2.3
	v15.4c0,1,0.4,1.9,1.2,2.3v0h-5.6v0C187.1,59.6,187.5,58.7,187.5,57.7z"/>
</svg>
